<svg xmlns="http://www.w3.org/2000/svg" viewBox="64 66 118 85">
<path fill="#7289DA" d="
M 150.9 150.6
s -3.6-4.3-6.6-8.1
c 13.1-3.7 18.1-11.9 18.1-11.9-4.1 2.7-8 4.6-11.5 5.9-5 2.1-9.8 3.5-14.5 4.3-9.6 1.8-18.4 1.3-25.9-.1-5.7-1.1-10.6-2.7-14.7-4.3-2.3-.9-4.8-2-7.3-3.4-.3-.2-.6-.3-.9-.5-.2-.1-.3-.2-.4-.3-1.8-1-2.8-1.7-2.8-1.7
s 4.8 8 17.5 11.8
c -3 3.8-6.7 8.3-6.7 8.3-22.1-.7-30.5-15.2-30.5-15.2 0-32.2 14.4-58.3 14.4-58.3 14.4-10.8 28.1-10.5 28.1-10.5
l 1 1.2
c -18 5.2-26.3 13.1-26.3 13.1
s 2.2-1.2 5.9-2.9
c 10.7-4.7 19.2-6 22.7-6.3.6-.1 1.1-.2 1.7-.2 6.1-.8 13-1 20.2-.2 9.5 1.1 19.7 3.9 30.1 9.6 0 0-7.9-7.5-24.9-12.7
l 1.4-1.6
s 13.7-.3 28.1 10.5
c 0 0 14.4 26.1 14.4 58.3 0 0-8.5 14.5-30.6 15.2
z
"/>
<path fill="#FFF" d="
M 104.4 103.9
c -5.7 0-10.2 5-10.2 11.1
s 4.6 11.1 10.2 11.1
c 5.7 0 10.2-5 10.2-11.1.1-6.1-4.5-11.1-10.2-11.1
z
M 140.9 103.9
c -5.7 0-10.2 5-10.2 11.1
s 4.6 11.1 10.2 11.1
c 5.7 0 10.2-5 10.2-11.1
s -4.5-11.1-10.2-11.1
z
"/>
</svg>