<svg xmlns="http://www.w3.org/2000/svg" viewBox="0 0 136 123">
<path stroke-width="8.5" stroke="#000" fill="#e6808a"
    d="M 68,116
    l 53,-53
    a 24,24,0,0,0,-48,-48
    l -5,5
    l -5,-5
    a 24,24,0,0,0,-48,48
    z"/>
<path fill="#e84757"
    d="M 68,97.5
    l 36,-36
    a 15,15,0,0,0,-29.5,-29.5
    l -6.5,6.5
    l -6.5,-6.5
    a 15,15,0,0,0,-29.5,29.5
    z"/>
<path fill="#e81224"
    d="M 68,85
    l 22,-22
    a 9,9,0,0,0,-17,-17
    l -5,5
    l -5,-5
    a 9,9,0,0,0,-17,17
    z"/>
</svg>